<svg id="Layer_1" data-name="Layer 1" xmlns="http://www.w3.org/2000/svg" viewBox="0 0 220 96"><defs><style>.cls-1{fill:none;}.cls-2{fill:#fff;}</style></defs><path class="cls-1" d="M69,40c-.28-.43-.49-.91-.75-1.35a2.65,2.65,0,0,0-.38-.43,11.32,11.32,0,0,0-1.06,2.84c-.81,2.22-1.51,4.48-2.3,6.84a3.38,3.38,0,0,0,.47,0,17.82,17.82,0,0,0,3.3-1.19c1.13-.61,2.31-1.14,3.47-1.72a4.2,4.2,0,0,0,.54-.39L70.5,42.15C70,41.45,69.46,40.75,69,40Z"/><path class="cls-1" d="M121.61,13.67c.27-.09.52-.23.81-.36-.07-.14-.09-.23-.15-.27-.81-.5-1.61-1-2.43-1.49a1.24,1.24,0,0,0-.64-.06,43.73,43.73,0,0,0-11.86,3.27,4.76,4.76,0,0,0-.49.28l0,.16.46.05a54.4,54.4,0,0,0,8.56-.35A35.73,35.73,0,0,0,121.61,13.67Z"/><path class="cls-2" d="M68.22,38.68a.74.74,0,0,0-.16-.2,7.81,7.81,0,0,0,.53.88C68.47,39.13,68.35,38.9,68.22,38.68Z"/><path class="cls-2" d="M149.51,47.8c0-1.85-.14-3.69-.22-5.53a30.76,30.76,0,0,0-.66-5.41c-.06-.3,0-.63,0-.94-.14-.73-.32-1.46-.48-2.19-.1-.45-.19-.89-.29-1.33-.14-.6-.22-1.21-.41-1.79-.34-1-.72-2-1.12-3a15.68,15.68,0,0,0-.93-2,14.09,14.09,0,0,0-3-3.71,11.56,11.56,0,0,0-4.06-2.06,5.74,5.74,0,0,0-3-.18c-1,.22-2.09.29-3.1.55a11.69,11.69,0,0,0-3.6,1.67,14.88,14.88,0,0,0-2.64,2.3c-.62.69-1.13,1.48-1.69,2.22a19,19,0,0,0-2.55,4.95c-.36,1-.63,1.93-.94,2.89a3.51,3.51,0,0,1-.24.48,3,3,0,0,1-.19-.46,26.8,26.8,0,0,0-.92-4.06,8.76,8.76,0,0,0-1.95-3.43,6.45,6.45,0,0,0-2.31-1.55,1.18,1.18,0,0,1-.77-1.09,5.54,5.54,0,0,1,.32-2.49l2.46-.29a33.23,33.23,0,0,0,8.72-2.09,14.16,14.16,0,0,0,3.55-1.92A6.48,6.48,0,0,0,132,13.59a4.52,4.52,0,0,0-1-4.08,5.48,5.48,0,0,0-4.58-2c-.75,0-1.5.2-2.25.27a5.63,5.63,0,0,1-1.23,0c-1-.14-2-.41-3-.47a26.07,26.07,0,0,0-7,.51,50.84,50.84,0,0,0-10.09,3.06,17.85,17.85,0,0,0-4.28,2.45,4.09,4.09,0,0,0-1.6,2,8,8,0,0,0-.21,1.39A2.59,2.59,0,0,0,97.34,19,7.23,7.23,0,0,0,98.63,20a9.18,9.18,0,0,0,3.51,1.1c1.37.2,2.75.36,4.13.5.93.09,1.87.11,2.8.15.67,0,1.35,0,2,0h3.18a9,9,0,0,1-1,2.67,1.61,1.61,0,0,1-.93.77,5.41,5.41,0,0,0-1.47.64,7.41,7.41,0,0,0-3,3.77,16,16,0,0,0-.76,4.09c-.05,1.26,0,2.54.11,3.81,0,.57.13,1.14.18,1.71.18,1.74.43,3.47.49,5.21s0,3.42-.11,5.12a32.45,32.45,0,0,1-.48,3.24c-.07.41-.21.8-.32,1.21-.24,1-.46,1.92-.73,2.88s-.61,2.09-.93,3.13a5.44,5.44,0,0,1-.19.52h-.15c0-.29-.11-.57-.16-.85-.36-2.1-.7-4.19-1.07-6.29-.18-1.09-.41-2.18-.6-3.28q-.23-1.36-.42-2.76a13.26,13.26,0,0,1-.17-1.53c0-.83.12-1.67.05-2.49a8.19,8.19,0,0,0-1.05-3.62,6.07,6.07,0,0,0-2.09-2.15c-.28-.17-.6-.28-.89-.42V37c.47-.12.94-.23,1.41-.37a3.13,3.13,0,0,0,1-.39,3.46,3.46,0,0,0,1.55-3.38,3.64,3.64,0,0,0-1.56-2.62c-1.08-.75-2.2-1.43-3.31-2.11-1.46-.89-2.93-1.75-4.39-2.63a18.67,18.67,0,0,1-1.75-1.13c-.93-.71-1.84-1.45-2.72-2.22A20.29,20.29,0,0,1,86,19.23c-.68-.9-1.38-1.78-2.07-2.68-.57-.73-1.15-1.46-1.69-2.22-.86-1.21-1.68-2.46-2.55-3.66-1.07-1.48-2.19-2.92-3.26-4.4a22.15,22.15,0,0,0-3.5-3.8,4.91,4.91,0,0,0-1-.58,6.81,6.81,0,0,1-.83-.32,3,3,0,0,0-2.45-.4A6.76,6.76,0,0,0,65.75,2a6.07,6.07,0,0,0-2.58,3.5,12.93,12.93,0,0,0-.39,2.7c-.09,2.19-.12,4.37-.13,6.56,0,1.41.06,2.82.11,4.23,0,.75.08,1.5.14,2.26A11.38,11.38,0,0,0,63,22.68c.18.91.38,1.83.58,2.74.52,1.91,2.76,9.81,4.44,13.06a.74.74,0,0,1,.16.2c.13.22.25.45.37.68A7.26,7.26,0,0,0,69,40c.49.72,1,1.42,1.53,2.12l1.76,2.43a4.2,4.2,0,0,1-.54.39c-1.16.58-2.34,1.11-3.47,1.72A17.82,17.82,0,0,1,65,47.88a3.38,3.38,0,0,1-.47,0c.17-.5.33-1,.49-1.47a10.08,10.08,0,0,1-2.51-.52c-.33,5.5-.56,10-.37,10.17l.19.15a5.47,5.47,0,0,0,1.94,1.12,25.31,25.31,0,0,1,4,1.62,20.86,20.86,0,0,1,4.48,3.62,23.19,23.19,0,0,1,2.65,3.28c.49.72,1,1.45,1.43,2.19.77,1.22,1.53,2.45,2.25,3.7.57,1,1.07,2,1.6,3,.25.5.52,1,.76,1.48s.48,1.08.74,1.61.67,1.29,1,2c.68,1.62,1.32,3.26,2,4.89.35.86.71,1.72,1,2.58a6.87,6.87,0,0,0,.43,1.23A9.48,9.48,0,0,1,87.38,91a5,5,0,0,0,2,2.87,5.22,5.22,0,0,1,1,.74c1,1.16,2.46,1.18,3.8,1.34a6.31,6.31,0,0,0,2.59-.43,4.7,4.7,0,0,0,2.11-1.09,10.2,10.2,0,0,0,1.8-2.19,7.46,7.46,0,0,0,.9-3.12,9,9,0,0,0-.35-3.16c-.47-1.47-1-2.93-1.49-4.39A17,17,0,0,1,99,78.8c-.08-.51-.18-1-.28-1.52-.18-1-.37-1.9-.53-2.86s-.3-2.17-.46-3.25-.38-2.07-.47-3.12a23.07,23.07,0,0,0-.75-4.68,12.43,12.43,0,0,0-.69-2c-.59-1.17-1.29-2.28-1.93-3.43a11.57,11.57,0,0,1-1.09-2.7,13.81,13.81,0,0,1-.34-3.84,4.42,4.42,0,0,1,.44-2c.06-.12.09-.26.14-.39a1.29,1.29,0,0,0-.69,1c-.26,1.14-.49,2.29-.74,3.43a13.53,13.53,0,0,1-1.38,3.8c-.8,1.44-1.64,2.85-2.47,4.28-.25.44-.49.48-.81.1-.64-.78-1.24-1.6-1.91-2.36q-1.41-1.61-2.89-3.15c-.55-.57-1.2-1-1.76-1.61a22.91,22.91,0,0,0-4.48-3.42c-.45-.27-.49-.47,0-.76.91-.61,1.83-1.19,2.77-1.75a1.93,1.93,0,0,1,.86-.19c.91,0,1.83.09,2.74,0a13.18,13.18,0,0,0,2.2-.5A5.33,5.33,0,0,0,87,46a2.66,2.66,0,0,1,1-.78,2.17,2.17,0,0,0,1.14-1.09A2.14,2.14,0,0,1,90,43.2a7.39,7.39,0,0,0,.76-.47,5.64,5.64,0,0,0,.53-.56l-.1-.11c-.56.31-1,.84-1.76.84a4.24,4.24,0,0,0-.18-.5,2.63,2.63,0,0,0-.39-.72,2.36,2.36,0,0,0-1.81-.77,1.39,1.39,0,0,1-1-.2,10.63,10.63,0,0,0-3.9-1.85,4.88,4.88,0,0,1-2.71-1.74c-.35-.48-.66-1-1-1.5a28.68,28.68,0,0,1-3-6.91c-.22-.74-.43-1.48-.62-2.23a3.51,3.51,0,0,1,0-.74,3.89,3.89,0,0,1,.35.26l2.52,2.72A2,2,0,0,0,78,29a24.31,24.31,0,0,0,2.91,2.35c1.1.66,2.14,1.44,3.28,2a42.15,42.15,0,0,0,4.42,1.92,30.27,30.27,0,0,0,5.06,1.38c.41.07.82.19,1.36.31-.48.29-.84.49-1.17.73a4.34,4.34,0,0,0-1.52,1.79,8.89,8.89,0,0,0-.49,2.32,8.09,8.09,0,0,0,.59,4.07c.28.78.64,1.54.94,2.31.19.52.32,1.07.51,1.59.39,1,.79,2,1.18,3.05.28.72.54,1.45.83,2.17s.7,1.47,1,2.23c.76,2.16,1.47,4.32,2.19,6.49.54,1.62,1.09,3.24,1.58,4.87.63,2.07,1.24,4.15,1.79,6.25A5.05,5.05,0,0,0,103.49,77a2.51,2.51,0,0,0,3.47.24,7.07,7.07,0,0,0,1.66-2.66c.5-1.14.83-2.36,1.28-3.53s.89-2.29,1.4-3.41,1.13-2.15,1.63-3.25c.8-1.72,1.56-3.47,2.32-5.21.64-1.48,1.3-2.94,1.87-4.44s1-2.85,1.43-4.27c.18-.55.3-1.11.44-1.66h.18c0,.45,0,.9.08,1.34.14,1.46.27,2.92.43,4.38.13,1.23.21,2.46.46,3.66.45,2.24,1,4.46,1.53,6.68a16.25,16.25,0,0,0,1.88,4.75A24.38,24.38,0,0,1,125.23,73a12.17,12.17,0,0,0,.89,1.67,8.32,8.32,0,0,0,2.63,2.55,9.58,9.58,0,0,0,6.34,1.41,12.68,12.68,0,0,0,8.39-4.39,19.08,19.08,0,0,0,3.25-5.59,42.78,42.78,0,0,0,1.43-4.72,29.46,29.46,0,0,0,.61-3.27c.16-1.12.28-2.24.4-3.36.06-.63.09-1.27.13-1.9.07-1,.19-2,.21-3C149.55,50.81,149.55,49.3,149.51,47.8ZM107.35,15.25l-.46-.05,0-.16a4.76,4.76,0,0,1,.49-.28,43.73,43.73,0,0,1,11.86-3.27,1.24,1.24,0,0,1,.64.06c.82.48,1.62,1,2.43,1.49.06,0,.08.13.15.27-.29.13-.54.27-.81.36a35.73,35.73,0,0,1-5.7,1.23A54.4,54.4,0,0,1,107.35,15.25Zm26.92,44.86c0,.19,0,.39,0,.59,0,1.43,0,2.86-.14,4.29a17.16,17.16,0,0,1-.61,3.75,1.26,1.26,0,0,1-1.45,1.05c-1-.13-2-.39-3-.6a.72.72,0,0,1-.51-.53A29.71,29.71,0,0,1,127,62.73c-.31-2-.57-3.93-.82-5.9-.09-.73-.11-1.46-.14-2.2-.06-1.66-.11-3.33-.16-5A26.88,26.88,0,0,1,128.13,38a15.84,15.84,0,0,1,3.31-4.77c.47-.45.86-.41,1.1.32a31.35,31.35,0,0,1,1.21,6.29c.13,1.17.2,2.34.25,3.5.08,1.75.1,3.49.17,5.24,0,.85.13,1.69.17,2.55,0,.27-.08.55-.08.82,0,1.36.06,2.73.09,4.09,0,0,0,.08,0,.12Z"/><path class="cls-1" d="M134.26,52c0-.27.1-.55.08-.82,0-.86-.14-1.7-.17-2.55-.07-1.75-.09-3.49-.17-5.24-.05-1.16-.12-2.33-.25-3.5a31.35,31.35,0,0,0-1.21-6.29c-.24-.73-.63-.77-1.1-.32A15.84,15.84,0,0,0,128.13,38a26.88,26.88,0,0,0-2.27,11.6c0,1.67.1,3.34.16,5,0,.74,0,1.47.14,2.2.25,2,.51,3.94.82,5.9a29.71,29.71,0,0,0,1.53,5.93.72.72,0,0,0,.51.53c1,.21,2,.47,3,.6a1.26,1.26,0,0,0,1.45-1.05,17.16,17.16,0,0,0,.61-3.75c.1-1.43.1-2.86.14-4.29,0-.2,0-.4,0-.59l.09-3.92s0-.08,0-.12C134.32,54.71,134.28,53.34,134.26,52Z"/><path class="cls-2" d="M217.48,43.19a1.08,1.08,0,0,1,0-.18c0-.06,0-.12,0-.18a4.61,4.61,0,0,0-2.81-4.67,26.53,26.53,0,0,0-3.54-1.24,6.87,6.87,0,0,0-4.09.13,1.11,1.11,0,0,0-.43.19c-.82.68-1.74,1.27-1.95,2.45-.07.41-.29.46-.59.23-.64-.47-1.25-1-1.91-1.41s-1.61-.94-2.43-1.37-1.5-.73-2.26-1.08c-1-.44-1.89-.93-2.87-1.3s-2.15-.69-3.23-1c-.62-.2-1.25-.39-1.86-.62-.91-.35-1.82-.69-2.7-1.1a11.74,11.74,0,0,1-3-1.77,3.18,3.18,0,0,1-.89-1.17,3.88,3.88,0,0,1,.58-.07,12.65,12.65,0,0,1,3.07.37c1.79.54,3.58,1.07,5.35,1.66a12.17,12.17,0,0,1,2.13.93c1.26.71,2.46,1.52,3.73,2.22a6.14,6.14,0,0,0,3,1,3.47,3.47,0,0,0,2.15-.55,3.36,3.36,0,0,0,.84-4.62,7.9,7.9,0,0,0-1.26-1.5,35.4,35.4,0,0,0-3.39-3.08c-.67-.46-1.27-1-2-1.43-1-.62-2.15-1.16-3.24-1.71-.59-.3-1.18-.58-1.78-.83a37.58,37.58,0,0,0-3.76-1.48c-1.65-.49-3.35-.83-5-1.16a12.41,12.41,0,0,0-2.72-.25,14.75,14.75,0,0,0-2.88.37,9.42,9.42,0,0,0-3,1.18A13.58,13.58,0,0,0,173,21.42a7.17,7.17,0,0,0-2.21,3.39,13.14,13.14,0,0,0-.62,5.81,9.4,9.4,0,0,0,.68,2.7c.11.25.25.49.38.74a24,24,0,0,0,1.18,2.1,13.72,13.72,0,0,0,3.21,3.15,18.66,18.66,0,0,0,4.23,2.29c1.29.49,2.66.81,4,1.18.4.11.82.15,1.23.23s1,.22,1.52.3c1.61.24,3.22.43,4.83.69,1.84.31,3.68.64,5.5,1a10.49,10.49,0,0,1,5.19,2.25,4.77,4.77,0,0,1,1.79,2.85,3.7,3.7,0,0,1-1.69,3.49,13.67,13.67,0,0,1-4.87,1.7,8,8,0,0,1-5.1-.61,21.88,21.88,0,0,1-3.68-2.31,7.26,7.26,0,0,1-.76-.86l.38-.29c.58-.45,1.19-.87,1.73-1.36a5.7,5.7,0,0,1,2.94-1.58c.37-.06.74-.15,1.11-.24.08,0,.13-.13.2-.2a7.31,7.31,0,0,0-1.26.07,7.42,7.42,0,0,1-3.32-.59,4.85,4.85,0,0,0-4.42.17,4,4,0,0,0-1.73,1.6,4.49,4.49,0,0,0,.61,5.27,13,13,0,0,0,3.62,3.06c.2.11.38.26.67.46a1.92,1.92,0,0,1-1.48-.26c-.72-.43-1.39-.94-2.13-1.32A14,14,0,0,1,181,53.21c-.91-1-1.74-2.07-2.7-3a4.25,4.25,0,0,0-4.16-1.32c-.33.08-.66.1-.82-.31a2.25,2.25,0,0,1-.39.51c-.28.21-.61.36-.91.56a3.57,3.57,0,0,0-1.65,2.18,10.62,10.62,0,0,0-.23,2.88A7.15,7.15,0,0,0,171.62,58c.3.46.64.89,1,1.4-.3.11-.47.19-.65.24-1.43.37-2.86.71-4.27,1.1a49,49,0,0,0-7.36,2.57c-1.17.54-2.31,1.15-3.47,1.72a6.85,6.85,0,0,1-.67.26c.09-.27.12-.4.17-.52.57-1.23,1.14-2.45,1.72-3.67.34-.72.71-1.42,1-2.14.63-1.37,1.24-2.76,1.85-4.13.33-.73.67-1.45,1-2.18.45-1.08.89-2.16,1.3-3.25.49-1.32,1-2.63,1.39-4,.49-1.65.89-3.32,1.34-5q.31-1.14.66-2.28a21.4,21.4,0,0,0,.88-6.7,38,38,0,0,0-.16-4.28,16.48,16.48,0,0,0-1.4-4.84,7,7,0,0,0-3.46-3.69c-.28-.13-.6-.19-.88-.33a2.23,2.23,0,0,0-1.43-.25c-.51.08-1,.09-1.54.19a5.18,5.18,0,0,0-1.36.38,7.69,7.69,0,0,0-3.61,4.23,14.39,14.39,0,0,0-.8,3.34c-.24,1.55-.37,3.11-.5,4.66s-.17,2.93-.26,4.4c0,.33-.08.67-.08,1,0,1-.05,2.1,0,3.15s.29,2.33.3,3.5c0,2.24-.06,4.49-.1,6.73,0,.12,0,.24-.06.35-.17,1.22-.35,2.44-.52,3.66s-.3,2.44-.55,3.64c-.37,1.83-.78,3.65-1.27,5.45s-1,3.52-1.61,5.24-1.47,3.6-2.26,5.37a6.51,6.51,0,0,0-.62,2.65,2.41,2.41,0,0,0,1.13,2.22,4.47,4.47,0,0,0,1.58.77,4.59,4.59,0,0,0,3.09-.64c1.31-.74,2.52-1.65,3.79-2.47.78-.5,1.57-1,2.39-1.43s1.86-.9,2.76-1.39a36.31,36.31,0,0,1,6.74-3A63.49,63.49,0,0,1,174,68.4c.51-.1,1-.19,1.53-.25,1.24-.15,2.48-.26,3.73-.41l5.73-.68a18.88,18.88,0,0,0,4.88-1,2.7,2.7,0,0,0,.85-.53,4.16,4.16,0,0,0,1.5-3.75,3,3,0,0,0-.71-1.91,1.07,1.07,0,0,1-.08-.3c.27,0,.49.06.69.12a6.73,6.73,0,0,0,2.36.26c1.4-.14,2.81-.27,4.19-.5a13.55,13.55,0,0,0,7-2.95,7.66,7.66,0,0,0,2.38-3.64,12.61,12.61,0,0,0,.12-6.65c0-.2-.05-.41-.08-.69a3.89,3.89,0,0,1,.6.17,9.36,9.36,0,0,0,4.9.64,4,4,0,0,0,3.63-2.63l1.25.19C218.27,43.37,217.78,43.49,217.48,43.19Z"/><path class="cls-2" d="M168.3,47.8a2.7,2.7,0,0,0,3-1.18c.26-.49.49-1,.74-1.49.34-.67.68-1.35,1-2a4.17,4.17,0,0,0,.8-2.34c-.1-1.3-.31-2.54-1.86-2.94a.27.27,0,0,1-.1-.06,1.11,1.11,0,0,0-1-.2l-.7.11a3.93,3.93,0,0,0-2.52,2.15s0,0,0,.06c-.3,1.88-.62,3.75-.9,5.63A2.1,2.1,0,0,0,168.3,47.8Z"/><path class="cls-2" d="M219.44,33.46l-1,.08a2.67,2.67,0,0,1-2-.59c-.43-.38-.84-.78-1.25-1.18a3.71,3.71,0,0,0-2.05-1,8.88,8.88,0,0,0-3.25.11,2.83,2.83,0,0,0-2.41,2.44,2,2,0,0,0,.41,1.74,3.46,3.46,0,0,0,1.76.95c.6.12,1.2.26,1.81.33a5,5,0,0,0,4.11-1.18A4.88,4.88,0,0,1,217.85,34c.45-.08.9-.16,1.34-.26.11,0,.2-.13.29-.19Z"/><path class="cls-2" d="M60.5,13.13a4.18,4.18,0,0,1-2.66,4.15,3.42,3.42,0,0,1-3.41-.48,7.32,7.32,0,0,1-2.06-3.06c-.43-1-.93-2-1.37-3-.37-.85-.72-1.71-1-2.58s-.47-1.53-.7-2.3a1.15,1.15,0,0,1-.05-.41A6.5,6.5,0,0,1,51,1.25,4.12,4.12,0,0,1,52.23.5c.28-.14.61-.17.91-.29a3.13,3.13,0,0,1,2.79.3,6.38,6.38,0,0,1,2.75,2.92,11,11,0,0,1,.84,3.84c.12,1,.34,1.94.51,2.92S60.34,12.15,60.5,13.13Z"/><g id="Ellipse_1" data-name="Ellipse 1"><path d="M33.28,11.32A32.71,32.71,0,1,0,66,44,32.7,32.7,0,0,0,33.28,11.32Z"/><path d="M33.28,76.79a32.78,32.78,0,1,1,23.16-9.6A32.56,32.56,0,0,1,33.28,76.79Zm0-65.41A32.65,32.65,0,1,0,65.92,44,32.68,32.68,0,0,0,33.28,11.38Z"/></g><path class="cls-2" d="M54.68,40c0,.11,0,.24,0,.37s0,.27,0,.42,0,.63,0,1.31a34.82,34.82,0,0,1-.54,6.15,26.85,26.85,0,0,1-1.51,5.31,20.14,20.14,0,0,1-7.59,9.22,21.28,21.28,0,0,1-19.65,1.76A21.36,21.36,0,0,1,14,53.14,21.12,21.12,0,0,1,12.45,45a20.63,20.63,0,0,1,6.17-14.84,21.25,21.25,0,0,1,7-4.64A22.7,22.7,0,0,1,34.12,24a21.77,21.77,0,0,1,8.39,1.62,24.94,24.94,0,0,1,7.45,5l-8.67,8.16a18.63,18.63,0,0,0-3.64-2.08A10.08,10.08,0,0,0,34.18,36a8.85,8.85,0,0,0-9,9,8.76,8.76,0,0,0,2.42,6.29,7.84,7.84,0,0,0,5.92,2.56,8,8,0,0,0,3.92-1A7.4,7.4,0,0,0,39.87,51c.05-.07.16-.24.32-.51s.1-.4-.18-.4h-8.5V40Z"/></svg>